<?xml version="1.0"?>
<svg id="Layer_2" data-name="Layer 2" xmlns="http://www.w3.org/2000/svg" viewBox="0 0 10613.18 3539.52">
  <g id="Layer_1-2" data-name="Layer 1">
    <path d="M7428.69,1915c0,349.65-263.58,532.54-527.16,532.54s-511.02-177.51-511.02-532.54,247.44-521.78,500.27-521.78,537.92,182.89,537.92,521.78ZM6901.52,2985.46c833.78,0,1215.7-591.71,1215.7-1145.77,0-591.71-451.85-1215.7-1215.7-1215.7h-1108.12v521.78h973.64c-731.57,69.93-1043.57,484.13-1043.57,903.71,0,451.85,381.92,935.98,1178.05,935.98ZM3711.65,3539.52h1839.69v-661.64h-1113.5V0h-726.19v3539.52ZM8590.59,3539.52h1108.12c570.2,0,909.09-467.99,909.09-946.74,0-317.37-150.62-640.13-489.51-823.02,338.89-145.24,494.89-462.61,494.89-785.36,0-478.75-338.89-984.4-898.33-984.4h-1124.25v661.64h1075.84c236.69-5.38,349.65,177.51,349.65,371.17,0,209.79-129.1,424.96-387.3,424.96h-1038.19v661.64h1038.19c258.2,0,381.92,204.41,381.92,403.44,0,182.89-102.2,355.03-311.99,355.03h-1108.12v661.64ZM2533.61,903.71c-102.2,0-215.17-75.31-215.17-209.79s107.58-215.17,215.17-215.17,204.41,69.93,204.41,215.17-102.2,209.79-204.41,209.79ZM2533.61,1215.7h446.47v-209.79h-392.68c295.86-32.28,419.58-199.03,419.58-365.79,0-182.89-156-381.92-473.37-381.92-338.89,0-494.89,242.06-494.89,462.61,0,242.06,182.89,494.89,494.89,494.89ZM532.54,1172.67h274.34V0H0v225.93h532.54v946.74ZM968.26,1172.67h279.72v-537.92c0-118.34,107.58-177.51,225.93-177.51s252.82,69.93,252.82,193.65v521.78h247.44v-521.78c0-268.96-182.89-392.68-414.2-392.68-112.96,0-328.13,59.17-328.13,220.55V0h-263.58v1172.67Z"></path>
  </g>
</svg>