<?xml version="1.0"?>
<svg id="Layer_2" data-name="Layer 2" xmlns="http://www.w3.org/2000/svg" viewBox="0 0 12506.28 2719.78">
  <g id="Layer_1-2" data-name="Layer 1">
    <g>
      <path d="M531.33,501.6H0V66.88h1467.64v434.72h-516.46v2166.16h-419.85V501.6Z"></path>
      <path d="M2920.41,2660.33h-419.85v-1125.81h-416.14v1125.81h-419.85V59.45h419.85v1092.37h416.14V59.45h419.85v2600.88Z"></path>
      <path d="M3247.36,59.45h1185.26v434.72h-765.41v653.94h639.07v382.7h-639.07v694.8h765.41v434.72h-1185.26V59.45Z"></path>
      <path d="M6308.89,66.88v2166.16h824.84v434.72h-1244.7V66.88h419.86Z"></path>
      <path d="M8188.92,2236.75h-512.75l-78.02,423.57h-457.01L7694.75,59.45h475.6l553.62,2600.88h-457.01l-78.04-423.57ZM8118.34,1854.06l-185.79-1006.91-185.77,1006.91h371.56Z"></path>
      <path d="M8809.37,59.45h627.93c146.12,0,271.24,32.86,375.26,98.46,104.04,65.66,182.64,151.75,235.94,258.23,53.23,106.53,79.88,220.5,79.88,341.83,0,106.53-21.06,209.35-63.15,308.39-42.15,99.1-102.82,184.56-182.06,256.37,104.03,64.44,183.91,152.98,239.65,265.66,55.74,112.74,83.61,232.22,83.61,358.55s-27.29,240.29-81.74,349.26c-54.52,109.03-137.48,196.92-248.94,263.8-111.47,66.88-245.23,100.32-401.29,100.32h-665.08V59.45ZM9610.07,1038.49c70.6-70.59,105.9-154.2,105.9-250.8,0-91.61-32.23-170.28-96.61-235.94-64.44-65.6-153.61-98.46-267.51-98.46-37.16,0-78.04,3.72-122.62,11.15v676.23c19.79,2.5,47.02,3.72,81.74,3.72,128.77,0,228.5-35.3,299.09-105.89ZM9654.66,2125.29c73.03-69.32,109.6-149.84,109.6-241.51s-36.57-175.21-109.6-243.37c-73.09-68.1-175.27-102.18-306.54-102.18-59.45,0-99.1,1.28-118.89,3.72v676.23c44.58,7.43,85.45,11.15,122.62,11.15,128.77,0,229.73-34.66,302.82-104.03Z"></path>
      <path d="M10524.05,627.93c100.32-208.07,231.57-364.7,393.84-470.02C11080.1,52.66,11254.15,0,11439.93,0s359.76,52.66,522.02,157.91c162.21,105.31,293.54,261.94,393.85,470.02,100.32,208.07,150.47,458.29,150.47,750.54s-50.15,528.24-150.47,730.1c-100.32,201.91-231.65,354.25-393.85,457.01-162.27,102.76-336.25,154.2-522.02,154.2s-359.83-51.44-522.04-154.2c-162.27-102.76-293.52-255.09-393.84-457.01-100.32-201.86-150.48-445.23-150.48-730.1s50.17-542.47,150.48-750.54ZM12095.72,772.83c-73.09-165.92-168.48-291.67-286.09-377.13-117.69-85.46-242.15-128.19-373.42-128.19s-255.15,42.15-371.56,126.33c-116.45,84.24-210.56,209.93-282.38,377.13-71.87,167.2-107.75,368.48-107.75,603.77s35.88,426.71,107.75,588.91c71.82,162.26,166.57,284.87,284.24,367.84,117.63,83.02,242.09,124.47,373.42,124.47s255.73-41.45,373.4-124.47c117.63-82.96,212.37-205.57,284.24-367.84,71.81-162.21,107.75-358.55,107.75-588.91s-36.57-435.94-109.61-601.91ZM11034.94,535.04h434.71c128.77,0,228.5,42.15,299.11,126.33,70.59,84.24,105.89,187.05,105.89,308.39,0,81.74-16.13,161.04-48.3,237.79-32.22,76.81-78.02,139.97-137.47,189.49l182.06,750.54h-278.67l-156.05-694.8-141.19,22.29v672.51h-260.08V535.04ZM11534.68,1140.67c43.3-44.58,65.02-96.61,65.02-156.05s-19.86-105.89-59.45-146.76c-39.65-40.87-95.39-61.31-167.2-61.31-24.8,2.5-50.81,4.99-78.04,7.43v419.86c12.36,2.5,30.95,3.72,55.74,3.72,79.24,0,140.55-22.29,183.92-66.88Z"></path>
    </g>
  </g>
</svg>