<?xml version="1.0"?>
<svg id="Layer_2" data-name="Layer 2" xmlns="http://www.w3.org/2000/svg" viewBox="0 0 9159.48 4697.53">
  <g id="Layer_1-2" data-name="Layer 1">
    <path d="M4233.49,828.14h-1470.66v692.49h1292.18c-970.92,92.81-1384.99,642.52-1384.99,1199.37,0,599.69,506.88,1242.2,1563.47,1242.2s1613.44-785.3,1613.44-1520.63c0-785.3-599.69-1613.44-1613.44-1613.44ZM4233.49,3248.3c-342.68,0-678.22-235.59-678.22-706.77s328.4-692.49,663.94-692.49,713.91,242.73,713.91,692.49-349.82,706.77-699.63,706.77Z"></path>
    <polygon points="0 4697.53 2441.58 4697.53 2441.58 3819.42 963.78 3819.42 963.78 0 0 0 0 4697.53"></polygon>
    <path d="M6475.17,4697.53h1470.66c756.75,0,1206.51-621.1,1206.51-1256.48,0-421.21-199.9-849.55-649.66-1092.28,449.76-192.76,656.8-613.96,656.8-1042.31C9159.48,671.08,8709.71,0,7967.25,0h-1492.07v878.11h1427.82c314.12-7.14,464.04,235.59,464.04,492.6,0,278.43-171.34,563.99-514.02,563.99h-1377.85v878.11h1377.85c342.68,0,506.88,271.29,506.88,535.43,0,242.73-135.64,471.18-414.07,471.18h-1470.66v878.11Z"></path>
  </g>
</svg>