<?xml version="1.0"?>
<svg id="Layer_2" data-name="Layer 2" xmlns="http://www.w3.org/2000/svg" viewBox="0 0 13130.5 4285.56">
  <g id="Layer_1-2" data-name="Layer 1">
    <path d="M12484.27,2178.02C13597.96,1698.72,13175.04,0,11955.63,0h-2213.26v726h2149.83c648.47,0,592.08,1113.69-49.34,1113.69h-1360.38v726h1360.38c641.42,0,662.57,993.85,91.63,993.85h-6893.54V683.72h3052.05c-958.61,91.62-1367.43,704.86-1367.43,1254.65,0,592.09,500.45,1296.94,1543.65,1296.94s1592.99-775.35,1592.99-1501.35C9862.19,888.12,9270.11,0,8269.21,0h-4024.76v4285.56h7690.04c1275.8,0,1635.27-1522.5,549.79-2107.54ZM8959.97,1832.63c0,458.16-345.38,697.82-690.76,697.82s-669.62-232.61-669.62-697.82,324.24-683.71,655.52-683.71,704.86,239.65,704.86,683.71Z"></path>
    <path d="M3640.77,775.05c0-221.45-188.88-462.42-573.15-462.42-410.32,0-599.2,293.08-599.2,560.11,0,293.09,221.44,599.2,599.2,599.2h540.58v-254.01h-475.45c358.21-39.08,508.01-240.99,508.01-442.88ZM2807.1,840.18c0-169.33,130.26-260.52,260.52-260.52s247.49,84.67,247.49,260.52-123.75,254.01-247.49,254.01-260.52-91.18-260.52-254.01Z"></path>
    <polygon points="644.79 1419.83 976.95 1419.83 976.95 0 0 0 0 273.55 644.79 273.55 644.79 1419.83"></polygon>
    <path d="M1172.34,1419.83h338.68v-651.3c0-143.29,130.26-214.93,273.55-214.93s306.11,84.67,306.11,234.47v631.76h299.6v-631.76c0-325.65-221.44-475.45-501.5-475.45-136.77,0-397.29,71.64-397.29,267.03V0h-319.14v1419.83Z"></path>
  </g>
</svg>