<?xml version="1.0"?>
<svg id="Layer_2" data-name="Layer 2" xmlns="http://www.w3.org/2000/svg" viewBox="0 0 10775.33 3593.6">
  <g id="Layer_1-2" data-name="Layer 1">
    <path d="M7542.19,1703.15c0,354.99-267.61,540.68-535.22,540.68s-518.83-180.23-518.83-540.68,251.22-529.76,507.91-529.76,546.14,185.69,546.14,529.76ZM7006.97,2789.97c846.52,0,1234.28-600.75,1234.28-1163.28,0-600.75-458.76-1234.28-1234.28-1234.28h-1125.05v529.76h988.51c-742.75,71-1059.51,491.53-1059.51,917.51,0,458.76,387.76,950.28,1196.05,950.28ZM3768.36,3593.6h4953.49v-671.75h-4216.2V0h-737.29v3593.6ZM8721.85,3593.6h1125.05c578.91,0,922.98-475.14,922.98-961.21,0-322.22-152.92-649.91-496.99-835.59,344.07-147.46,502.45-469.68,502.45-797.36,0-486.06-344.07-999.44-912.05-999.44h-1141.43v671.75h1092.28c240.3-5.46,354.99,180.23,354.99,376.84,0,212.99-131.07,431.45-393.22,431.45h-1054.05v671.75h1054.05c262.15,0,387.76,207.53,387.76,409.6,0,185.69-103.77,360.45-316.76,360.45h-1125.05v671.75ZM2572.32,917.51c-103.77,0-218.46-76.46-218.46-212.99s109.23-218.46,218.46-218.46,207.53,71,207.53,218.46-103.77,212.99-207.53,212.99ZM2572.32,1234.28h453.3v-212.99h-398.68c300.38-32.77,425.99-202.07,425.99-371.37,0-185.69-158.38-387.76-480.6-387.76-344.07,0-502.45,245.76-502.45,469.68,0,245.76,185.69,502.45,502.45,502.45ZM540.68,1190.58h278.53V0H0v229.38h540.68v961.21ZM983.05,1190.58h283.99v-546.14c0-120.15,109.23-180.23,229.38-180.23s256.69,71,256.69,196.61v529.76h251.22v-529.76c0-273.07-185.69-398.68-420.53-398.68-114.69,0-333.15,60.08-333.15,223.92V0h-267.61v1190.58Z"></path>
  </g>
</svg>