<?xml version="1.0"?>
<svg id="Layer_2" data-name="Layer 2" xmlns="http://www.w3.org/2000/svg" viewBox="0 0 8680.3 5941.35">
  <defs>
    
  </defs>
  <g id="Layer_1-2" data-name="Layer 1">
    <g>
      <g>
        <polygon fill="#231f20" points="16.96 1183.41 553.44 1320.72 539.49 3947.23 1362.01 4157.52 1358.69 4761.36 0 4414.19 16.96 1183.41"></polygon>
        <g>
          <polygon fill="#ffffff" points="21.21 1180 557.4 1317.25 543.46 3943.76 1365.97 4154.05 1362.95 4757.95 4601.68 3582.77 4604.7 2978.87 3782.19 2768.58 3796.13 142.06 3259.94 4.82 21.21 1180"></polygon>
          <path fill="#231f20" d="M1358.31,4764.54l3.04-606.91-822.51-210.29.02-3.59,13.93-2622.92L5.6,1180.76,3259.7,0l541.05,138.49-.02,3.6-13.93,2622.92,822.51,210.29-3.06,610.71-3.02,1.1-3244.94,1177.43ZM548.08,3940.19l822.51,210.29-3.01,600.88,3229.5-1171.83,2.99-597.09-822.52-210.29.02-3.59,13.93-2622.92L3260.18,9.63,36.82,1179.24l525.21,134.44-.02,3.6-13.93,2622.92Z"></path>
        </g>
        <g>
          <line fill="#ffffff" x1="557.4" y1="1317.25" x2="3796.13" y2="142.06"></line>
          <rect fill="#231f20" x="454.09" y="725.05" width="3445.35" height="9.21" transform="translate(-118.34 786.25) rotate(-19.94)"></rect>
        </g>
        <g>
          <line fill="#ffffff" x1="543.46" y1="3943.76" x2="3782.19" y2="2768.58"></line>
          <rect fill="#231f20" x="440.15" y="3351.56" width="3445.35" height="9.22" transform="translate(-1015.22 939.2) rotate(-19.95)"></rect>
        </g>
        <g>
          <line fill="#ffffff" x1="1365.97" y1="4154.05" x2="4604.7" y2="2978.87"></line>
          <rect fill="#231f20" x="1262.66" y="3561.85" width="3445.35" height="9.22" transform="translate(-1037.08 1231.5) rotate(-19.93)"></rect>
        </g>
      </g>
      <g>
        <g>
          <path fill="#ffffff" d="M2465.24,2714.18c-68.01,8.79-112.8,33.04-141.66,54.84-142.07,107.39-171.91,363.07-68.55,635.19,9.06,23.98,87.12,220.82,292.46,278.74,115.19,32.49,213.83,5.31,255.9-9.14,37.32-33.2,111.04-108,150.8-228.48,53-160.58,11.2-297.92-4.57-342.73-1.29-14.07-28.36-263.66-237.63-361.01-104.2-48.47-203.36-35.85-246.76-27.42Z"></path>
          <path fill="#231f20" d="M2659.04,3702.96c-35.16,0-73.15-4.37-112.8-15.55-201.52-56.84-281.53-244.51-295.52-281.55-103.71-273.02-75.55-530.42,70.08-640.5,39.32-29.7,87.67-48.45,143.71-55.72,61.11-11.85,153.95-16.62,249.44,27.8,210.61,97.98,238.55,347.07,240.22,364.19,22.86,65.19,53.57,196.23,4.41,345.17-36.73,111.3-102.99,186.77-152.12,230.48l-1.57.91c-37.34,12.83-87.72,24.77-145.85,24.77ZM2548.34,2710.71c-30.99,0-58.96,3.47-82.23,7.99l-.29.05c-54.49,7.05-101.42,25.2-139.48,53.95-142.33,107.59-169.26,360.71-67.02,629.88,13.72,36.33,92.15,220.31,289.41,275.94,102.41,28.89,193.56,11.28,252.28-8.76,48.2-43.05,112.88-117.03,148.8-225.87,48.44-146.75,17.95-275.86-4.54-339.76l-.24-1.11c-.97-10.58-26.21-260.13-234.99-357.26-57-26.51-113.07-35.07-161.71-35.07Z"></path>
        </g>
        <g>
          <g>
            <path fill="#ffffff" d="M1763.79,1813.92l818.46,209.08c51.59,12.66,121.27,34.53,198.02,73.96,24.51,12.6,84.94,45.07,159.79,104.86,34.6,27.65,190.86,155.82,324.58,389.49,45.65,79.76,102.88,196.64,145.29,347.84,9.61,32.74,18.75,67.79,26.94,105.03,8.89,40.39,17.23,85.91,23.71,135.85,0,0,4.51,34.79,8.29,84.12,2.7,35.28,7.35,100.1,3.89,171.48-5.27,108.73-27.63,191.49-40.83,239.27-17.05,61.71-34.27,124.06-74.9,199.75-27.03,50.37-66.45,122.21-144.82,189.76-64.94,55.98-132.85,88.52-188.57,107.71,1089.36-394.6,2178.74-789.2,3268.1-1183.8,79.15-37.74,134.39-82.19,169.34-114.88,114.29-106.94,161.09-228.26,189.89-305.39,28.5-76.34,42.4-143.26,49.72-190.96,20.47-181.45,6.53-330.33-9.65-430.76-18.4-114.19-81.27-423.45-312.52-715.02-111.61-140.72-211.36-212.91-234.25-229.15-123.98-87.99-243.24-131.68-323.3-154.33-272.82-69.69-545.64-139.39-818.46-209.08L1763.79,1813.92Z"></path>
            <path fill="#231f20" d="M3025.15,4176.48l-3.07-8.69,17.93-6.49c62.67-23.84,119.52-57.55,169.2-100.38,79.34-68.38,118.11-140.64,143.77-188.45,40.37-75.21,57.72-138.01,74.5-198.75,12.35-44.71,35.33-127.84,40.68-238.32,3.57-73.52-1.65-141.76-3.88-170.9-3.72-48.63-8.22-83.53-8.26-83.88-5.87-45.26-13.82-90.83-23.64-135.45-7.69-34.96-16.73-70.2-26.86-104.72-34.21-121.99-82.95-238.67-144.86-346.84-123.47-215.75-267.33-343.34-323.46-388.18-36.22-28.93-93.21-70.53-159.02-104.37-62.38-32.05-128.67-56.81-197.01-73.59l-832.98-212.79,3254.11-1180.75,819.83,209.43c117.42,33.23,226.67,85.38,324.82,155.04,45.05,31.97,135.51,104.36,235.2,230.04,216.07,272.44,289.14,566.26,313.46,717.15,22.8,141.47,26.06,286.82,9.68,432-10.08,65.63-26.89,130.19-49.99,192.05-27.55,73.79-73.66,197.3-191.06,307.15-49.71,46.51-107.08,85.43-170.5,115.68l-3250.5,1177.45c-5.97,2.27-12.01,4.46-18.08,6.55ZM1779.41,1813.16l803.98,205.38c69,16.94,135.96,41.94,198.99,74.32,66.49,34.19,124.01,76.17,160.56,105.37,56.54,45.17,201.45,173.67,325.7,390.8,62.29,108.84,111.32,226.22,145.72,348.89,10.18,34.67,19.27,70.11,27.01,105.28,9.88,44.88,17.88,90.72,23.78,136.24.04.35,4.57,35.48,8.31,84.37,2.24,29.31,7.49,97.95,3.9,172.05-5.41,111.5-28.55,195.27-40.99,240.27-16.93,61.28-34.42,124.58-75.28,200.7-25.98,48.41-65.23,121.57-145.87,191.07-26.59,22.92-55.19,43.27-85.61,60.94l3160.57-1144.85c62.16-29.66,118.74-68.05,167.76-113.92,115.82-108.37,161.46-230.6,188.72-303.64,22.88-61.28,39.53-125.22,49.49-190.05,16.26-144.17,13.02-288.68-9.65-429.32-24.18-150.01-96.8-442.09-311.58-712.89-102.67-129.45-197.36-202.75-233.31-228.26-97.29-69.05-205.59-120.75-321.89-153.66l-816.97-208.7L1779.41,1813.16Z"></path>
          </g>
          <path fill="#231f20" d="M2583.01,2024.29c563.98,144.22,894.85,799.04,892.1,1338.9-2.59,493.62-274.05,951.24-859.66,826.77-14.5-3.08-29.21-6.54-44.1-10.35-588-150.05-867.62-664.31-865.44-1076.44,1.98-383.16,234.52-702.25,775.04-628.2l-719.16-183.66,2.47-476.17,818.75,209.14ZM2965.98,3302.24c1.63-309.45-200.2-528.2-394.76-577.79-5.02-1.28-10.03-2.46-15.04-3.53-181.42-38.54-355.3,69.99-357.13,385.35-1.59,323.78,184.21,533.76,375,582.55,4.81,1.22,9.62,2.34,14.43,3.36,189.94,40.37,375.84-78.72,377.49-389.94"></path>
        </g>
      </g>
      <g>
        <g>
          <path fill="#231f20" d="M3891.85,2519.51l848.16,181.25c421.88,90.44,691.86,606.4,705.23,1042.98,9.32,294.67-99.32,559.07-350.98,636.64,260.97,221.71,383.52,540.51,392.54,830.15,13.38,427.37-218.49,793.06-631.73,721.9-8.94-1.54-17.99-3.29-27.11-5.25l-835.76-178.77-18.91-603.63,836.05,178.84c3.39.72,6.71,1.37,10.02,1.94,151.19,26.04,220.26-112.02,215.12-275.45-5.53-181.62-104.76-387.92-299.59-429.66l-782.84-167.54-18.91-603.61,783.14,167.59c4.05.87,8.02,1.63,11.97,2.31,186.57,32.13,273.87-140.2,268.18-327.52-5.52-176.64-95.91-361.86-274.18-395.04l-811.51-173.53-18.91-603.61Z"></path>
          <g>
            <path fill="#ffffff" d="M3899.48,2527.05l880.13,188.03s465.48,108.92,637.39,841.73c0,0,141.5,695.19-321.63,828.24,0,0,425.32,356.27,384.63,896.71-40.69,540.43-247.06,556.57-347.58,637.84l3241.24-1313.14s362.52-172.36,293.55-787.1c0,0-35.19-433.51-375.6-720.03,0,0,407.27-194.27,320.69-788.08-86.57-593.82-630.58-753.41-630.58-753.41,0,0-105.46-33.97-143-39.2-37.54-5.22-656.18-99.15-656.18-99.15l-3283.06,1107.57Z"></path>
            <path fill="#231f20" d="M5105.41,5935.5l24.11-19.5c17.39-14.06,37.98-26.25,59.79-39.16,106.56-63.07,252.51-149.46,286.09-595.44,40.03-531.77-378.76-889.28-382.99-892.83l-6.64-5.57,8.33-2.39c236.73-68.01,310.75-287.64,331.16-459.91,22.22-187.54-12.42-361.24-12.77-362.98-88.41-376.87-256.09-584.71-381.19-692.69-135.48-116.95-251.58-145.2-252.74-145.47l-896.45-191.51,3300.02-1113.29,1.1.17c6.19.94,619.04,93.98,656.13,99.14,37.51,5.22,139.46,37.98,143.78,39.38,1.25.36,138.41,41.42,284.24,154.77,134.63,104.64,304.55,294.09,349.49,602.36,44.95,308.3-45.2,507.4-128.74,620.13-77.81,105.01-164.65,156.7-188.31,169.54,333.13,284.53,371.63,714.41,371.98,718.74,19.74,175.91,14.66,427.63-121.7,627.05-81.76,119.58-173.55,164.15-174.47,164.59l-3270.23,1324.89ZM5104.67,4387.09c52.99,47.6,417.58,394.74,379.92,895-33.94,450.77-182.27,538.57-290.58,602.68-8.55,5.06-16.91,10.01-24.94,14.99l3202.86-1297.59c.65-.32,90.55-44.1,170.91-161.86,134.44-197.02,139.35-446.15,119.8-620.46-.36-4.45-39.03-435.09-373.99-717.02l-5.47-4.6,6.45-3.08c1.01-.49,102.13-49.71,191.39-170.34,82.35-111.3,171.19-307.99,126.73-612.91-44.48-305.08-212.56-492.6-345.74-596.2-144.48-112.38-280.23-153.06-281.58-153.46-1.17-.37-105.62-33.94-142.34-39.06-36.39-5.06-625.52-94.5-655.13-98.99l-3266.1,1101.85,863.72,184.52c1.26.29,119.14,28.87,256.27,147.08,126.3,108.87,295.55,318.36,384.64,698.11.38,1.88,35.29,176.84,12.95,365.82-29.28,247.61-143.24,408.37-329.76,465.51Z"></path>
          </g>
          <rect fill="#231f20" x="4970.92" y="3737.58" width="3445.15" height="9.21" transform="translate(-912.85 2767.35) rotate(-21.91)"></rect>
        </g>
        <g>
          <path fill="#ffffff" d="M3987.66,5144.28l963.83-381.63c30.42,42.73,94.11,145,97.36,286.95,1.68,73.64-13.44,134.29-27.77,175.72-1.34,6.59-15.58,70.65-77.93,98.75-52.69,23.76-101.18,4.44-109.42.99-282.03-60.26-564.05-120.52-846.08-180.78Z"></path>
          <path fill="#231f20" d="M4888.46,5340.32c-27.04,0-48.24-7.55-56.5-11.01l-860.15-183.7,981.35-388.56,2.09,2.94c43.17,60.63,95.25,160.08,98.22,289.52,1.37,59.95-8.06,119.62-28.02,177.33-1.34,6.82-16.39,72.59-80.39,101.44-20.01,9.02-39.47,12.04-56.59,12.04ZM4003.52,5142.96l831.18,177.59c13.43,5.53,58.35,21.05,106.56-.69,59.82-26.96,73.9-88.53,75.31-95.46,19.76-57.26,29.02-115.84,27.68-174.7-2.87-125.03-52.44-221.61-94.43-281.44l-946.3,374.69Z"></path>
        </g>
        <g>
          <path fill="#ffffff" d="M3945.37,3850.92l987.43-392.09c30.42,42.73,70.51,155.46,73.77,297.42,1.68,73.64-13.44,134.29-27.77,175.72-1.34,6.59-15.58,70.65-77.93,98.75-52.69,23.76-101.18,4.44-109.42.99-282.03-60.26-564.05-120.52-846.08-180.78Z"></path>
          <path fill="#231f20" d="M4846.17,4046.96c-27.04,0-48.24-7.56-56.5-11.01l-860.13-183.7,1004.92-399.03,2.09,2.94c28.14,39.53,71.23,152.03,74.62,299.98,1.37,59.97-8.06,119.63-28.02,177.33-1.34,6.82-16.38,72.59-80.39,101.44-20,9.02-39.47,12.05-56.59,12.05ZM3961.2,3849.59l831.21,177.6c13.43,5.53,58.36,21.06,106.56-.69,59.83-26.96,73.9-88.53,75.31-95.47,19.76-57.25,29.02-115.83,27.67-174.7-3.26-142.3-43.4-250.82-70.87-291.88l-969.89,385.13Z"></path>
        </g>
      </g>
    </g>
  </g>
</svg>